<svg width="200" height="280" viewBox="0 0 200 280" fill="none" xmlns="http://www.w3.org/2000/svg">
<rect width="200" height="280" fill="#F8F8F8"/>
<rect x="20" y="20" width="160" height="15" fill="#E0E0E0"/>
<rect x="20" y="45" width="100" height="8" fill="#CCCCCC"/>
<rect x="20" y="65" width="160" height="10" fill="#E0E0E0"/>
<rect x="20" y="80" width="140" height="8" fill="#CCCCCC"/>
<rect x="20" y="95" width="160" height="10" fill="#E0E0E0"/>
<rect x="20" y="110" width="140" height="8" fill="#CCCCCC"/>
<rect x="20" y="130" width="160" height="10" fill="#E0E0E0"/>
<rect x="20" y="145" width="140" height="8" fill="#CCCCCC"/>
<rect x="20" y="165" width="160" height="10" fill="#E0E0E0"/>
<rect x="20" y="180" width="140" height="8" fill="#CCCCCC"/>
<rect x="20" y="200" width="160" height="10" fill="#E0E0E0"/>
<rect x="20" y="215" width="140" height="8" fill="#CCCCCC"/>
<rect x="20" y="235" width="160" height="10" fill="#E0E0E0"/>
<rect x="20" y="250" width="140" height="8" fill="#CCCCCC"/>
</svg>