<svg width="200" height="280" viewBox="0 0 200 280" fill="none" xmlns="http://www.w3.org/2000/svg">
<rect width="200" height="280" fill="#F8F8F8"/>
<rect x="0" y="0" width="66" height="280" fill="#E0E0E0"/>
<rect x="10" y="20" width="46" height="15" fill="#CCCCCC"/>
<rect x="10" y="40" width="30" height="8" fill="#B0B0B0"/>
<rect x="10" y="60" width="46" height="8" fill="#CCCCCC"/>
<rect x="10" y="75" width="40" height="6" fill="#B0B0B0"/>

<rect x="80" y="20" width="100" height="10" fill="#E0E0E0"/>
<rect x="80" y="35" width="80" height="6" fill="#CCCCCC"/>
<rect x="80" y="50" width="100" height="10" fill="#E0E0E0"/>
<rect x="80" y="65" width="80" height="6" fill="#CCCCCC"/>

<rect x="80" y="90" width="100" height="10" fill="#E0E0E0"/>
<rect x="80" y="105" width="80" height="6" fill="#CCCCCC"/>
<rect x="80" y="120" width="100" height="10" fill="#E0E0E0"/>
<rect x="80" y="135" width="80" height="6" fill="#CCCCCC"/>

<rect x="80" y="160" width="100" height="10" fill="#E0E0E0"/>
<rect x="80" y="175" width="80" height="6" fill="#CCCCCC"/>
<rect x="80" y="190" width="100" height="10" fill="#E0E0E0"/>
<rect x="80" y="205" width="80" height="6" fill="#CCCCCC"/>

<rect x="80" y="230" width="100" height="10" fill="#E0E0E0"/>
<rect x="80" y="245" width="80" height="6" fill="#CCCCCC"/>
</svg>