<svg width="200" height="280" viewBox="0 0 200 280" fill="none" xmlns="http://www.w3.org/2000/svg">
<rect width="200" height="280" fill="#F8F8F8"/>
<rect x="20" y="20" width="160" height="15" fill="#E0E0E0"/>
<rect x="20" y="40" width="100" height="8" fill="#CCCCCC"/>
<rect x="20" y="60" width="160" height="8" fill="#E0E0E0"/>
<rect x="20" y="75" width="140" height="6" fill="#CCCCCC"/>
<rect x="20" y="90" width="160" height="8" fill="#E0E0E0"/>
<rect x="20" y="105" width="140" height="6" fill="#CCCCCC"/>
<rect x="20" y="125" width="160" height="8" fill="#E0E0E0"/>
<rect x="20" y="140" width="140" height="6" fill="#CCCCCC"/>
<rect x="20" y="160" width="160" height="8" fill="#E0E0E0"/>
<rect x="20" y="175" width="140" height="6" fill="#CCCCCC"/>
<rect x="20" y="195" width="160" height="8" fill="#E0E0E0"/>
<rect x="20" y="210" width="140" height="6" fill="#CCCCCC"/>
<rect x="20" y="230" width="160" height="8" fill="#E0E0E0"/>
<rect x="20" y="245" width="140" height="6" fill="#CCCCCC"/>
</svg>