<svg width="200" height="280" viewBox="0 0 200 280" fill="none" xmlns="http://www.w3.org/2000/svg">
<rect width="200" height="280" fill="#F8F8F8"/>
<rect x="20" y="20" width="160" height="240" fill="#FFFFFF" stroke="#E0E0E0" stroke-width="1"/>

<!-- Header -->
<rect x="30" y="30" width="140" height="15" fill="#E0E0E0"/>
<rect x="30" y="50" width="100" height="5" fill="#CCCCCC"/>
<rect x="30" y="58" width="120" height="5" fill="#CCCCCC"/>

<!-- Section Titles -->
<rect x="30" y="75" width="60" height="8" fill="#333333"/>
<rect x="30" y="90" width="140" height="3" fill="#E0E0E0"/>

<!-- Education -->
<rect x="30" y="100" width="100" height="5" fill="#666666"/>
<rect x="140" y="100" width="30" height="5" fill="#999999"/>
<rect x="30" y="108" width="80" height="4" fill="#999999"/>

<!-- Experience -->
<rect x="30" y="125" width="60" height="8" fill="#333333"/>
<rect x="30" y="140" width="140" height="3" fill="#E0E0E0"/>
<rect x="30" y="150" width="100" height="5" fill="#666666"/>
<rect x="140" y="150" width="30" height="5" fill="#999999"/>
<rect x="30" y="158" width="80" height="4" fill="#999999"/>
<rect x="35" y="165" width="130" height="3" fill="#999999"/>
<rect x="35" y="170" width="120" height="3" fill="#999999"/>

<!-- Projects -->
<rect x="30" y="185" width="60" height="8" fill="#333333"/>
<rect x="30" y="200" width="140" height="3" fill="#E0E0E0"/>
<rect x="30" y="210" width="100" height="5" fill="#666666"/>
<rect x="35" y="218" width="130" height="3" fill="#999999"/>
<rect x="35" y="223" width="120" height="3" fill="#999999"/>

<!-- Skills -->
<rect x="30" y="238" width="60" height="8" fill="#333333"/>
<rect x="30" y="253" width="140" height="3" fill="#E0E0E0"/>
<rect x="30" y="260" width="100" height="5" fill="#666666"/>
<rect x="30" y="268" width="120" height="5" fill="#666666"/>
</svg>