<svg width="200" height="280" viewBox="0 0 200 280" fill="none" xmlns="http://www.w3.org/2000/svg">
<rect width="200" height="280" fill="#F8F8F8"/>
<rect x="0" y="0" width="200" height="5" fill="#3498DB"/>
<rect x="20" y="20" width="160" height="18" fill="#2C3E50"/>
<rect x="20" y="45" width="100" height="10" fill="#34495E"/>
<rect x="20" y="70" width="160" height="12" fill="#E0E0E0"/>
<rect x="20" y="85" width="140" height="8" fill="#CCCCCC"/>
<rect x="20" y="100" width="160" height="12" fill="#E0E0E0"/>
<rect x="20" y="115" width="140" height="8" fill="#CCCCCC"/>
<rect x="20" y="140" width="160" height="12" fill="#E0E0E0"/>
<rect x="20" y="155" width="140" height="8" fill="#CCCCCC"/>
<rect x="20" y="180" width="160" height="12" fill="#E0E0E0"/>
<rect x="20" y="195" width="140" height="8" fill="#CCCCCC"/>
<rect x="20" y="220" width="160" height="12" fill="#E0E0E0"/>
<rect x="20" y="235" width="140" height="8" fill="#CCCCCC"/>
<rect x="20" y="260" width="160" height="12" fill="#E0E0E0"/>
</svg>